#!OML:ASF F:\VICON\USERDATA\INSTALL\rory3\rory3.ASF
:FULLY-SPECIFIED
:DEGREES
84
root -0.2394927602554336 18.416100787794086 37.955177429051915 4.96491448789536 -3.9069824176024346 -0.19295590511909722
lfemur 19.804614136070242 -5.821128438966589 -29.494736443354427
ltibia -3.419581315221727
lfoot 44.689501043006686 -18.545883284869358
ltoes -24.706892054045838
rfemur -43.80437812388425 2.343358447428463 21.168673457124374
rtibia 6.790325628795813
rfoot 1.541668499451076 -0.3904781223246969
rtoes -33.496670341620096
lowerback 1.0 -0.9762248484833043 -1.4662280727870367
upperback -2.3864284748224076 -0.8615047697332163 1.3836202386006204
thorax -8.393383606859661 -0.20923380966830712 2.9250340078698747
lowerneck -20.758700039882566 -1.9366126611699586 -2.238886112991943
upperneck 11.035589548058216 -2.7947208056963575 2.778690448662771
head 7.1116305456948465 -1.1975658516614796 0.7921910903057656
lclavicle -5.923665846711987e-15 8.705455943968249e-15
lhumerus -38.04097330935197 -14.135766584169103 93.76673028136679
lradius 132.4347906716136
lwrist 37.847918773999226
lhand -34.577236108265936 0.17852407629807776
lfingers nan
lthumb -7.684203114677921 30.02194666681274
rclavicle -1.0335780221156487e-14 6.6225980221865334e-15
rhumerus -65.42668442826569 6.237666654202594 -92.5762684407334
rradius 124.81852906294807
rwrist -6.377606984020742
rhand -18.210304360722965 1.0
rfingers nan
rthumb 7.852507027330002 8.55367228492197
85
root -0.22529267706402256 18.42198235304549 38.088185075322436 4.970461687764768 -3.5355115230362992 0.28302126823888507
lfemur 19.36210681464597 -6.204839410948094 -30.152435863310146
ltibia -2.4683729121987525
lfoot 45.93294761364846 -18.40139435518791
ltoes -21.662032911791847
rfemur -43.00078853434164 2.465545154906414 20.166304617594164
rtibia 0.45525911134972574
rfoot 2.135327082990041 -1.1975554445033474
rtoes -31.893213223851177
lowerback 1.0 -1.0516330701938572 -1.8095302786521203
upperback -2.115752477713532 -0.9832043468137535 1.2809238301911812
thorax -7.536495763370681 -0.297146005249913 3.044423362686865
lowerneck -22.868876486629 -1.8813256283321929 -2.2736070118963765
upperneck 11.59440481456957 -2.721759993083075 2.6952894347276963
head 7.596223628216712 -1.1546162399255033 0.7614997153166928
lclavicle 1.2126496226495694e-14 5.6541692304712106e-15
lhumerus -38.24595535732581 -14.291541102271502 93.78795984142255
lradius 131.6826004018107
lwrist 38.070671545412765
lhand -35.125391270873024 1.0767464420693265
lfingers nan
lthumb -8.157230774578242 30.97567112563293
rclavicle 8.07640538937721e-15 3.820165234229509e-15
rhumerus -65.00802916766636 5.7542352828301935 -91.78241683102782
rradius 125.29512086548615
rwrist -7.592374170715854
rhand -18.621003591006296 1.0
rfingers nan
rthumb 7.469654113439303 8.681937896408003
86
root -0.21410535455769675 18.42567470080604 37.927343500520664 4.8930354799363 -3.005804236094246 1.1709880722666663
lfemur 18.861289641682752 -6.586055871832202 -31.185109656298806
ltibia -0.9558241544993749
lfoot 45.51407609982608 -20.294241798390978
ltoes -23.82801080447036
rfemur -42.098678685293564 2.1573110909682782 18.629340496524584
rtibia -5.370755462529054
rfoot 2.9337048403657535 -2.4284984262890745
rtoes -33.20318393425838
lowerback 1.0 -1.1241652618765685 -2.7113745804093714
upperback -2.153116674796342 -1.23045237787918 1.0182464883370839
thorax -7.42107035810435 -0.38842548931244275 3.2918525320233165
lowerneck -23.36956610326907 -1.8610648687849602 -2.233348671931814
upperneck 11.765313335623283 -2.654187183021461 2.494203983227459
head 7.713426181467784 -1.1451732358593347 0.6885849786045211
lclavicle 4.888399599708227e-14 -2.255184016398658e-15
lhumerus -38.98650373370356 -14.432925832904868 93.96610821339014
lradius 130.8183244807289
lwrist 39.734045923087166
lhand -34.73317414379255 0.8334858710984703
lfingers nan
lthumb -7.763870746915905 30.743434650436853
rclavicle 4.4701738006335226e-14 -3.936856519665094e-15
rhumerus -64.88472007995333 5.1261337083780685 -91.13916334390221
rradius 125.74208000459471
rwrist -8.293298089369234
rhand -18.28871044890834 1.0
rfingers nan
rthumb 7.795667777458863 9.433086838395203
87
root -0.2040543714070585 18.442771126039442 38.43335570242751 4.710614522908027 -2.858325325585927 1.5602147582030796
lfemur 18.09489332502551 -6.700527562876698 -31.638371877779917
ltibia 1.2244538129911078
lfoot 44.01861203951176 -21.657167143934437
ltoes -26.55823097711899
rfemur -41.14908986697081 2.058114405781455 18.161101263637285
rtibia -10.71062658564967
rfoot 3.849609898637969 -3.720587315216269
rtoes -39.209524533773426
lowerback 1.0 -1.1465792528986471 -3.1610116560131507
upperback -2.1372419240381006 -1.3490878858040918 0.9527341511210545
thorax -7.423742949283398 -0.4169327071550792 3.4673862649293885
lowerneck -23.848173674088205 -1.8556213209343997 -2.2678558932615784
upperneck 12.205070973512209 -2.554220940235881 2.347571682506003
head 7.911531472983233 -1.121487317490067 0.6674687398925242
lclavicle 2.7391721368325467e-14 -8.811651034850365e-16
lhumerus -39.87199491200114 -14.52548700855942 94.23774216676617
lradius 130.02013224927884
lwrist 40.77246091839901
lhand -35.18577199775929 1.5389930310737785
lfingers nan
lthumb -8.256863810843747 31.392233177425712
rclavicle 2.334960625508036e-14 -2.6255557953552903e-15
rhumerus -64.70158298587309 4.5061824482250135 -90.71589138952733
rradius 126.14030149261848
rwrist -8.28212104212648
rhand -18.323330225032805 1.0
rfingers nan
rthumb 7.766265770005481 11.10999279056378
88
root -0.20284409888094002 18.465033566264722 38.980871138131 4.672024020906337 -2.7235892066522487 1.266386656995421
lfemur 16.934052927006903 -6.817365769734361 -31.34007357780662
ltibia 3.9910641628027577
lfoot 41.14533023160888 -21.367472421313337
ltoes -30.226033374518494
rfemur -40.33821804350575 2.3030323766141314 18.69060417088364
rtibia -15.38387350796362
rfoot 4.377572271870564 -5.221952642994385
rtoes -39.099050460895604
lowerback 1.0 -1.152480596166262 -2.9738936761395367
upperback -2.3301853631104246 -1.3501208244997054 1.1488455392655785
thorax -7.9707864995364615 -0.3923209735634972 3.5057874819102612
lowerneck -23.700905553435426 -1.9116423365313526 -2.3864232187386074
upperneck 12.29447708955832 -2.5157173595800977 2.3333020417785897
head 7.913797158574828 -1.1238161065701284 0.7062773026619017
lclavicle -1.336727317311307e-14 -2.0657115420216756e-14
lhumerus -41.18762633824797 -14.552667065044652 94.75680379554393
lradius 129.23876608073243
lwrist 41.29844646395861
lhand -35.50523489849355 1.8414332279220267
lfingers nan
lthumb -8.655009804088555 31.602716209202868
rclavicle -1.684818894191318e-14 -2.1872304285871436e-14
rhumerus -64.4851403469211 3.904282405312566 -90.41765628343522
rradius 126.30291090343985
rwrist -7.130707884790234
rhand -19.030633464261815 1.0
rfingers nan
rthumb 7.0873353952458045 12.28977115803854
89
root -0.19322952510220404 18.483047253502598 39.75468746903853 4.55786843790582 -2.558853063092026 0.9261966573723366
lfemur 15.796928286544599 -6.904381497837164 -30.94545534843107
ltibia 7.1219044775586084
lfoot 42.40541396472285 -20.855268718228213
ltoes -24.610282203123795
rfemur -39.52460413903259 2.5594493832562266 19.34163235768718
rtibia -19.28068374509565
rfoot 4.633814668603868 -6.142216805188434
rtoes -36.27522322447972
lowerback 1.0 -1.1528553099291725 -2.7878779266914213
upperback -2.3928627533987554 -1.3474806901943643 1.381032675436929
thorax -8.370149942661742 -0.3737530850907475 3.557678154780079
lowerneck -23.490990492740544 -1.914322519977385 -2.409953209396562
upperneck 11.964028701349488 -2.4603685091615364 2.3061879139738237
head 7.767201130818197 -1.1176488523144867 0.7159528436010331
lclavicle 3.629732356724583e-14 -3.544919215707021e-15
lhumerus -42.13198588461219 -14.42044107935899 95.10344233135415
lradius 128.35923353382412
lwrist 42.25995257146191
lhand -34.43499916454329 1.9780550031436133
lfingers nan
lthumb -7.630874196776442 31.747091645216738
rclavicle 3.2745442655694084e-14 -4.460314055146018e-15
rhumerus -64.07832273686836 3.441501106798456 -90.27056419820853
rradius 126.37578740131555
rwrist -5.630950578706672
rhand -20.103068955436196 1.0
rfingers nan
rthumb 6.0536900934587266 11.569760674447775
90
root -0.17028335699627628 18.483349168529752 40.528601347670566 4.266943245155811 -2.330097187541119 0.7783340723033629
lfemur 14.839247775217629 -7.016316821134817 -30.722535108174835
ltibia 10.371813331804681
lfoot 43.40285742436782 -19.838094652663443
ltoes -19.548310175154356
rfemur -38.77677263448351 2.530706601797534 19.946948512198922
rtibia -22.06023227667034
rfoot 5.522341222928621 -6.110200054728453
rtoes -36.965036260018465
lowerback 1.0 -1.1690873037317142 -2.6498217017443793
upperback -2.1827903864863263 -1.3703621218060542 1.5335649963230698
thorax -8.154429416547968 -0.38173387024980937 3.578909402151955
lowerneck -23.07989110563785 -1.9691771894292671 -2.4488091211465144
upperneck 11.209020321493984 -2.465564503560247 2.2667576131314497
head 7.456441649773641 -1.1341076386694402 0.7163747077024109
lclavicle 5.217333049714629e-14 2.7348669049357712e-14
lhumerus -42.763941150465584 -14.421555941278733 95.42644794141358
lradius 127.32547560969374
lwrist 42.68469870622957
lhand -33.60457980659505 2.7475402891016873
lfingers nan
lthumb -6.893253191091746 32.513515668700904
rclavicle 4.870764056596781e-14 2.61722549929718e-14
rhumerus -63.51427548687079 3.074352972469514 -90.06474874348793
rradius 126.36066227065956
rwrist -4.036475915850991
rhand -21.440225421071766 1.0
rfingers nan
rthumb 4.775499907693106 10.13145721398121
91
root -0.1329300013546557 18.452916967054197 41.216337292276414 3.869316993062569 -1.828509019021438 0.5284373004984344
lfemur 13.949477430575293 -7.053895227970145 -30.259174610214725
ltibia 13.600571943839547
lfoot 42.79184712542857 -20.41712373584944
ltoes -19.211442588014854
rfemur -38.15389302688919 1.7777896691401207 21.108151806595192
rtibia -23.51803391752093
rfoot 6.804579060572145 -5.372513999473099
rtoes -41.100967704645015
lowerback 1.0 -1.2660331079410276 -2.128844082581776
upperback -1.751560294677455 -1.4468596437185628 1.7119772886295193
thorax -7.504070100756833 -0.44204420648891135 3.4835658558964657
lowerneck -22.58358603476752 -2.010393505034903 -2.431542474118088
upperneck 10.144811337519362 -2.4891969733908854 2.1024877343128465
head 7.0167570677359326 -1.16983315182182 0.6693979869872878
lclavicle -4.436376655749829e-14 1.0787446760069394e-14
lhumerus -43.12863006265807 -14.502197943009163 95.74443262142448
lradius 126.04792948868396
lwrist 42.879712659209915
lhand -33.281261677335436 2.957031374770894
lfingers nan
lthumb -6.606973614332365 32.76995228836245
rclavicle -4.671615463900673e-14 9.738010745031926e-15
rhumerus -62.86770034117684 2.8117150385438485 -89.89915093014916
rradius 126.38435160735125
rwrist -2.637515860522658
rhand -22.386017517535517 1.0
rfingers nan
rthumb 3.8879200015911994 10.673172463083889
